<?xml version="1.0" encoding="us-ascii" standalone="no"?><svg xmlns="http://www.w3.org/2000/svg" xmlns:xlink="http://www.w3.org/1999/xlink" contentStyleType="text/css" height="1410px" preserveAspectRatio="none" style="width:1389px;height:1410px;background:#FFFFFF;" version="1.1" viewBox="0 0 1389 1410" width="1389px" zoomAndPan="magnify"><defs/><g><!--cluster 6ebb7423072c5943f52c11274fd71b0b--><g id="cluster_6ebb7423072c5943f52c11274fd71b0b"><polygon fill="none" points="16,16,26,6,526,6,526,163.48,516,173.48,16,173.48,16,16" style="stroke:#181818;stroke-width:1.0;"/><line style="stroke:#181818;stroke-width:1.0;" x1="516" x2="526" y1="16" y2="6"/><line style="stroke:#181818;stroke-width:1.0;" x1="16" x2="516" y1="16" y2="16"/><line style="stroke:#181818;stroke-width:1.0;" x1="516" x2="516" y1="16" y2="173.48"/><text fill="#000000" font-family="sans-serif" font-size="14" font-weight="bold" lengthAdjust="spacing" textLength="83" x="225.5" y="31.9951">Dynamodb</text></g><!--cluster ba39a5f0aa547715c4df694144393752--><g id="cluster_ba39a5f0aa547715c4df694144393752"><polygon fill="none" points="802,16,812,6,1372,6,1372,163.48,1362,173.48,802,173.48,802,16" style="stroke:#181818;stroke-width:1.0;"/><line style="stroke:#181818;stroke-width:1.0;" x1="1362" x2="1372" y1="16" y2="6"/><line style="stroke:#181818;stroke-width:1.0;" x1="802" x2="1362" y1="16" y2="16"/><line style="stroke:#181818;stroke-width:1.0;" x1="1362" x2="1362" y1="16" y2="173.48"/><text fill="#000000" font-family="sans-serif" font-size="14" font-weight="bold" lengthAdjust="spacing" textLength="92" x="1037" y="31.9951">Apigateway</text></g><!--cluster 04a7da3c5b04cad85da1eebb92315b8b--><g id="cluster_04a7da3c5b04cad85da1eebb92315b8b"><polygon fill="none" points="271,207.48,281,197.48,998,197.48,998,1383.87,988,1393.87,271,1393.87,271,207.48" style="stroke:#181818;stroke-width:1.0;"/><line style="stroke:#181818;stroke-width:1.0;" x1="988" x2="998" y1="207.48" y2="197.48"/><line style="stroke:#181818;stroke-width:1.0;" x1="271" x2="988" y1="207.48" y2="207.48"/><line style="stroke:#181818;stroke-width:1.0;" x1="988" x2="988" y1="207.48" y2="1393.87"/><text fill="#000000" font-family="sans-serif" font-size="14" font-weight="bold" lengthAdjust="spacing" textLength="61" x="600" y="223.4751">Lambda</text></g><!--entity 18fef27bdd0ad3fb35c0283925d93bbc--><g id="elem_18fef27bdd0ad3fb35c0283925d93bbc"><rect fill="#F1F1F1" height="111.4844" rx="2.5" ry="2.5" style="stroke:#181818;stroke-width:0.5;" width="478" x="32" y="46"/><rect fill="#F1F1F1" height="10" style="stroke:#181818;stroke-width:0.5;" width="15" x="490" y="51"/><rect fill="#F1F1F1" height="2" style="stroke:#181818;stroke-width:0.5;" width="4" x="488" y="53"/><rect fill="#F1F1F1" height="2" style="stroke:#181818;stroke-width:0.5;" width="4" x="488" y="57"/><text fill="#000000" font-family="sans-serif" font-size="14" font-weight="bold" lengthAdjust="spacing" textLength="438" x="47" y="78.9951">dynamodb_${local.api_state_table}-${local.uniq_stage}</text><text fill="#000000" font-family="sans-serif" font-size="14" lengthAdjust="spacing" textLength="4" x="47" y="95.292">&#160;</text><text fill="#000000" font-family="sans-serif" font-size="14" lengthAdjust="spacing" textLength="201" x="47" y="111.5889">terraform name: bogus_state</text><text fill="#000000" font-family="sans-serif" font-size="14" lengthAdjust="spacing" textLength="254" x="47" y="127.8857">terraform type: aws_dynamodb_table</text><text fill="#000000" font-family="sans-serif" font-size="14" lengthAdjust="spacing" textLength="4" x="47" y="144.1826">&#160;</text></g><!--entity d7d543e0f1a6c78b536b28ef7e978188--><g id="elem_d7d543e0f1a6c78b536b28ef7e978188"><rect fill="#F1F1F1" height="111.4844" rx="2.5" ry="2.5" style="stroke:#181818;stroke-width:0.5;" width="538" x="818" y="46"/><rect fill="#F1F1F1" height="10" style="stroke:#181818;stroke-width:0.5;" width="15" x="1336" y="51"/><rect fill="#F1F1F1" height="2" style="stroke:#181818;stroke-width:0.5;" width="4" x="1334" y="53"/><rect fill="#F1F1F1" height="2" style="stroke:#181818;stroke-width:0.5;" width="4" x="1334" y="57"/><text fill="#000000" font-family="sans-serif" font-size="14" font-weight="bold" lengthAdjust="spacing" textLength="498" x="833" y="78.9951">apigateway_bogus_api-${var.stage}-${random_string.seed.id}</text><text fill="#000000" font-family="sans-serif" font-size="14" lengthAdjust="spacing" textLength="4" x="833" y="95.292">&#160;</text><text fill="#000000" font-family="sans-serif" font-size="14" lengthAdjust="spacing" textLength="186" x="833" y="111.5889">terraform name: bogus_api</text><text fill="#000000" font-family="sans-serif" font-size="14" lengthAdjust="spacing" textLength="285" x="833" y="127.8857">terraform type: aws_api_gateway_rest_api</text><text fill="#000000" font-family="sans-serif" font-size="14" lengthAdjust="spacing" textLength="4" x="833" y="144.1826">&#160;</text></g><!--entity a773a0ceb9f645268075c20fc93b9d7d--><g id="elem_a773a0ceb9f645268075c20fc93b9d7d"><rect fill="#F1F1F1" height="111.4844" rx="2.5" ry="2.5" style="stroke:#181818;stroke-width:0.5;" width="356" x="516" y="237.48"/><rect fill="#F1F1F1" height="10" style="stroke:#181818;stroke-width:0.5;" width="15" x="852" y="242.48"/><rect fill="#F1F1F1" height="2" style="stroke:#181818;stroke-width:0.5;" width="4" x="850" y="244.48"/><rect fill="#F1F1F1" height="2" style="stroke:#181818;stroke-width:0.5;" width="4" x="850" y="248.48"/><text fill="#000000" font-family="sans-serif" font-size="14" font-weight="bold" lengthAdjust="spacing" textLength="316" x="531" y="270.4751">lambda_deleteState-${local.uniq_stage}</text><text fill="#000000" font-family="sans-serif" font-size="14" lengthAdjust="spacing" textLength="4" x="531" y="286.772">&#160;</text><text fill="#000000" font-family="sans-serif" font-size="14" lengthAdjust="spacing" textLength="195" x="531" y="303.0689">terraform name: deleteState</text><text fill="#000000" font-family="sans-serif" font-size="14" lengthAdjust="spacing" textLength="253" x="531" y="319.3657">terraform type: aws_lambda_function</text><text fill="#000000" font-family="sans-serif" font-size="14" lengthAdjust="spacing" textLength="4" x="531" y="335.6626">&#160;</text></g><!--entity 9c19a6c8e12dcfc24508e5511f6dd722--><g id="elem_9c19a6c8e12dcfc24508e5511f6dd722"><rect fill="#F1F1F1" height="111.4844" rx="2.5" ry="2.5" style="stroke:#181818;stroke-width:0.5;" width="355" x="533.5" y="408.96"/><rect fill="#F1F1F1" height="10" style="stroke:#181818;stroke-width:0.5;" width="15" x="868.5" y="413.96"/><rect fill="#F1F1F1" height="2" style="stroke:#181818;stroke-width:0.5;" width="4" x="866.5" y="415.96"/><rect fill="#F1F1F1" height="2" style="stroke:#181818;stroke-width:0.5;" width="4" x="866.5" y="419.96"/><text fill="#000000" font-family="sans-serif" font-size="14" font-weight="bold" lengthAdjust="spacing" textLength="315" x="548.5" y="441.9551">lambda_postReflect-${local.uniq_stage}</text><text fill="#000000" font-family="sans-serif" font-size="14" lengthAdjust="spacing" textLength="4" x="548.5" y="458.252">&#160;</text><text fill="#000000" font-family="sans-serif" font-size="14" lengthAdjust="spacing" textLength="194" x="548.5" y="474.5489">terraform name: postReflect</text><text fill="#000000" font-family="sans-serif" font-size="14" lengthAdjust="spacing" textLength="253" x="548.5" y="490.8457">terraform type: aws_lambda_function</text><text fill="#000000" font-family="sans-serif" font-size="14" lengthAdjust="spacing" textLength="4" x="548.5" y="507.1426">&#160;</text></g><!--entity 60d92cd168b19d335e736c5de29b9afe--><g id="elem_60d92cd168b19d335e736c5de29b9afe"><rect fill="#F1F1F1" height="111.4844" rx="2.5" ry="2.5" style="stroke:#181818;stroke-width:0.5;" width="321" x="360.5" y="580.45"/><rect fill="#F1F1F1" height="10" style="stroke:#181818;stroke-width:0.5;" width="15" x="661.5" y="585.45"/><rect fill="#F1F1F1" height="2" style="stroke:#181818;stroke-width:0.5;" width="4" x="659.5" y="587.45"/><rect fill="#F1F1F1" height="2" style="stroke:#181818;stroke-width:0.5;" width="4" x="659.5" y="591.45"/><text fill="#000000" font-family="sans-serif" font-size="14" font-weight="bold" lengthAdjust="spacing" textLength="281" x="375.5" y="613.4451">lambda_getSelf-${local.uniq_stage}</text><text fill="#000000" font-family="sans-serif" font-size="14" lengthAdjust="spacing" textLength="4" x="375.5" y="629.742">&#160;</text><text fill="#000000" font-family="sans-serif" font-size="14" lengthAdjust="spacing" textLength="163" x="375.5" y="646.0389">terraform name: getSelf</text><text fill="#000000" font-family="sans-serif" font-size="14" lengthAdjust="spacing" textLength="253" x="375.5" y="662.3357">terraform type: aws_lambda_function</text><text fill="#000000" font-family="sans-serif" font-size="14" lengthAdjust="spacing" textLength="4" x="375.5" y="678.6326">&#160;</text></g><!--entity d8765cf8d7e7b08276424eaf84aa4450--><g id="elem_d8765cf8d7e7b08276424eaf84aa4450"><rect fill="#F1F1F1" height="111.4844" rx="2.5" ry="2.5" style="stroke:#181818;stroke-width:0.5;" width="361" x="398.5" y="751.93"/><rect fill="#F1F1F1" height="10" style="stroke:#181818;stroke-width:0.5;" width="15" x="739.5" y="756.93"/><rect fill="#F1F1F1" height="2" style="stroke:#181818;stroke-width:0.5;" width="4" x="737.5" y="758.93"/><rect fill="#F1F1F1" height="2" style="stroke:#181818;stroke-width:0.5;" width="4" x="737.5" y="762.93"/><text fill="#000000" font-family="sans-serif" font-size="14" font-weight="bold" lengthAdjust="spacing" textLength="321" x="413.5" y="784.9251">lambda_getUserById-${local.uniq_stage}</text><text fill="#000000" font-family="sans-serif" font-size="14" lengthAdjust="spacing" textLength="4" x="413.5" y="801.222">&#160;</text><text fill="#000000" font-family="sans-serif" font-size="14" lengthAdjust="spacing" textLength="199" x="413.5" y="817.5189">terraform name: getUserById</text><text fill="#000000" font-family="sans-serif" font-size="14" lengthAdjust="spacing" textLength="253" x="413.5" y="833.8157">terraform type: aws_lambda_function</text><text fill="#000000" font-family="sans-serif" font-size="14" lengthAdjust="spacing" textLength="4" x="413.5" y="850.1126">&#160;</text></g><!--entity 11701921a2711b2b4876772409852c31--><g id="elem_11701921a2711b2b4876772409852c31"><rect fill="#F1F1F1" height="111.4844" rx="2.5" ry="2.5" style="stroke:#181818;stroke-width:0.5;" width="332" x="576" y="923.42"/><rect fill="#F1F1F1" height="10" style="stroke:#181818;stroke-width:0.5;" width="15" x="888" y="928.42"/><rect fill="#F1F1F1" height="2" style="stroke:#181818;stroke-width:0.5;" width="4" x="886" y="930.42"/><rect fill="#F1F1F1" height="2" style="stroke:#181818;stroke-width:0.5;" width="4" x="886" y="934.42"/><text fill="#000000" font-family="sans-serif" font-size="14" font-weight="bold" lengthAdjust="spacing" textLength="292" x="591" y="956.4151">lambda_getState-${local.uniq_stage}</text><text fill="#000000" font-family="sans-serif" font-size="14" lengthAdjust="spacing" textLength="4" x="591" y="972.712">&#160;</text><text fill="#000000" font-family="sans-serif" font-size="14" lengthAdjust="spacing" textLength="174" x="591" y="989.0089">terraform name: getState</text><text fill="#000000" font-family="sans-serif" font-size="14" lengthAdjust="spacing" textLength="253" x="591" y="1005.3057">terraform type: aws_lambda_function</text><text fill="#000000" font-family="sans-serif" font-size="14" lengthAdjust="spacing" textLength="4" x="591" y="1021.6026">&#160;</text></g><!--entity 3d368cc308da67595a1fc649431bbd92--><g id="elem_3d368cc308da67595a1fc649431bbd92"><rect fill="#F1F1F1" height="111.4844" rx="2.5" ry="2.5" style="stroke:#181818;stroke-width:0.5;" width="371" x="324.5" y="1094.9"/><rect fill="#F1F1F1" height="10" style="stroke:#181818;stroke-width:0.5;" width="15" x="675.5" y="1099.9"/><rect fill="#F1F1F1" height="2" style="stroke:#181818;stroke-width:0.5;" width="4" x="673.5" y="1101.9"/><rect fill="#F1F1F1" height="2" style="stroke:#181818;stroke-width:0.5;" width="4" x="673.5" y="1105.9"/><text fill="#000000" font-family="sans-serif" font-size="14" font-weight="bold" lengthAdjust="spacing" textLength="331" x="339.5" y="1127.8951">lambda_getUserByJwt-${local.uniq_stage}</text><text fill="#000000" font-family="sans-serif" font-size="14" lengthAdjust="spacing" textLength="4" x="339.5" y="1144.192">&#160;</text><text fill="#000000" font-family="sans-serif" font-size="14" lengthAdjust="spacing" textLength="206" x="339.5" y="1160.4889">terraform name: getUserByJwt</text><text fill="#000000" font-family="sans-serif" font-size="14" lengthAdjust="spacing" textLength="253" x="339.5" y="1176.7857">terraform type: aws_lambda_function</text><text fill="#000000" font-family="sans-serif" font-size="14" lengthAdjust="spacing" textLength="4" x="339.5" y="1193.0826">&#160;</text></g><!--entity 6287e46eded4a4e01b4c6f9ab2d2b654--><g id="elem_6287e46eded4a4e01b4c6f9ab2d2b654"><rect fill="#F1F1F1" height="111.4844" rx="2.5" ry="2.5" style="stroke:#181818;stroke-width:0.5;" width="341" x="579.5" y="1266.39"/><rect fill="#F1F1F1" height="10" style="stroke:#181818;stroke-width:0.5;" width="15" x="900.5" y="1271.39"/><rect fill="#F1F1F1" height="2" style="stroke:#181818;stroke-width:0.5;" width="4" x="898.5" y="1273.39"/><rect fill="#F1F1F1" height="2" style="stroke:#181818;stroke-width:0.5;" width="4" x="898.5" y="1277.39"/><text fill="#000000" font-family="sans-serif" font-size="14" font-weight="bold" lengthAdjust="spacing" textLength="301" x="594.5" y="1299.3851">lambda_postState-${local.uniq_stage}</text><text fill="#000000" font-family="sans-serif" font-size="14" lengthAdjust="spacing" textLength="4" x="594.5" y="1315.682">&#160;</text><text fill="#000000" font-family="sans-serif" font-size="14" lengthAdjust="spacing" textLength="182" x="594.5" y="1331.9789">terraform name: postState</text><text fill="#000000" font-family="sans-serif" font-size="14" lengthAdjust="spacing" textLength="253" x="594.5" y="1348.2757">terraform type: aws_lambda_function</text><text fill="#000000" font-family="sans-serif" font-size="14" lengthAdjust="spacing" textLength="4" x="594.5" y="1364.5726">&#160;</text></g><!--link 18fef27bdd0ad3fb35c0283925d93bbc to 9c19a6c8e12dcfc24508e5511f6dd722--><g id="link_18fef27bdd0ad3fb35c0283925d93bbc_9c19a6c8e12dcfc24508e5511f6dd722"><path codeLine="71" d="M335.44,157.84 C346.58,168.07 357.84,178.88 368,189.48 C431.49,255.69 428.23,290.6 499,348.96 C526.28,371.46 558.65,391.61 589.78,408.51 " fill="none" id="18fef27bdd0ad3fb35c0283925d93bbc-9c19a6c8e12dcfc24508e5511f6dd722" style="stroke:#181818;stroke-width:1.0;"/></g><!--link 18fef27bdd0ad3fb35c0283925d93bbc to 60d92cd168b19d335e736c5de29b9afe--><g id="link_18fef27bdd0ad3fb35c0283925d93bbc_60d92cd168b19d335e736c5de29b9afe"><path codeLine="72" d="M289.34,157.92 C306.72,208.43 334.48,284.83 364,348.96 C402.1,431.72 454.25,523.41 487.79,580.17 " fill="none" id="18fef27bdd0ad3fb35c0283925d93bbc-60d92cd168b19d335e736c5de29b9afe" style="stroke:#181818;stroke-width:1.0;"/></g><!--link 18fef27bdd0ad3fb35c0283925d93bbc to d8765cf8d7e7b08276424eaf84aa4450--><g id="link_18fef27bdd0ad3fb35c0283925d93bbc_d8765cf8d7e7b08276424eaf84aa4450"><path codeLine="73" d="M261.36,157.8 C244.9,270.14 223.76,528.91 343,691.93 C360.95,716.48 385.59,736.02 412.2,751.51 " fill="none" id="18fef27bdd0ad3fb35c0283925d93bbc-d8765cf8d7e7b08276424eaf84aa4450" style="stroke:#181818;stroke-width:1.0;"/></g><!--link 18fef27bdd0ad3fb35c0283925d93bbc to 3d368cc308da67595a1fc649431bbd92--><g id="link_18fef27bdd0ad3fb35c0283925d93bbc_3d368cc308da67595a1fc649431bbd92"><path codeLine="74" d="M218.35,157.96 C210.71,167.93 203.56,178.62 198,189.48 C140.74,301.36 129,338.03 129,463.71 C129,463.71 129,463.71 129,808.67 C129,944.49 265.09,1039.75 374.6,1094.43 " fill="none" id="18fef27bdd0ad3fb35c0283925d93bbc-3d368cc308da67595a1fc649431bbd92" style="stroke:#181818;stroke-width:1.0;"/></g><!--link 18fef27bdd0ad3fb35c0283925d93bbc to 11701921a2711b2b4876772409852c31--><g id="link_18fef27bdd0ad3fb35c0283925d93bbc_11701921a2711b2b4876772409852c31"><path codeLine="75" d="M249.49,157.76 C245.95,168.19 242.59,179.08 240,189.48 C210.24,309 200,340.54 200,463.71 C200,463.71 200,463.71 200,637.19 C200,817.01 416.38,905.71 575.7,946.66 " fill="none" id="18fef27bdd0ad3fb35c0283925d93bbc-11701921a2711b2b4876772409852c31" style="stroke:#181818;stroke-width:1.0;"/></g><!--link 18fef27bdd0ad3fb35c0283925d93bbc to 6287e46eded4a4e01b4c6f9ab2d2b654--><g id="link_18fef27bdd0ad3fb35c0283925d93bbc_6287e46eded4a4e01b4c6f9ab2d2b654"><path codeLine="76" d="M160.54,157.75 C148.69,167.08 137.77,177.64 129,189.48 C54.03,290.62 58,337.81 58,463.71 C58,463.71 58,463.71 58,980.16 C58,1212.03 374.48,1286.22 579.39,1309.96 " fill="none" id="18fef27bdd0ad3fb35c0283925d93bbc-6287e46eded4a4e01b4c6f9ab2d2b654" style="stroke:#181818;stroke-width:1.0;"/></g><!--link 18fef27bdd0ad3fb35c0283925d93bbc to a773a0ceb9f645268075c20fc93b9d7d--><g id="link_18fef27bdd0ad3fb35c0283925d93bbc_a773a0ceb9f645268075c20fc93b9d7d"><path codeLine="77" d="M400.16,157.89 C424.09,168.27 448.84,179.12 472,189.48 C505.92,204.65 542.59,221.45 576.17,237 " fill="none" id="18fef27bdd0ad3fb35c0283925d93bbc-a773a0ceb9f645268075c20fc93b9d7d" style="stroke:#181818;stroke-width:1.0;"/></g><!--link d7d543e0f1a6c78b536b28ef7e978188 to d8765cf8d7e7b08276424eaf84aa4450--><g id="link_d7d543e0f1a6c78b536b28ef7e978188_d8765cf8d7e7b08276424eaf84aa4450"><path codeLine="78" d="M1085.81,157.76 C1083.38,208.5 1076.3,285.34 1056,348.96 C1029.71,431.36 1019.83,454.39 964,520.45 C882.15,617.3 761.48,700.19 677.12,751.47 " fill="none" id="d7d543e0f1a6c78b536b28ef7e978188-d8765cf8d7e7b08276424eaf84aa4450" style="stroke:#181818;stroke-width:1.0;"/></g><!--link d7d543e0f1a6c78b536b28ef7e978188 to 3d368cc308da67595a1fc649431bbd92--><g id="link_d7d543e0f1a6c78b536b28ef7e978188_3d368cc308da67595a1fc649431bbd92"><path codeLine="79" d="M1136.23,157.84 C1143.61,167.9 1150.55,178.65 1156,189.48 C1212.68,302.15 1229,337.58 1229,463.71 C1229,463.71 1229,463.71 1229,808.67 C1229,1044.74 908.66,1117.58 695.63,1139.92 " fill="none" id="d7d543e0f1a6c78b536b28ef7e978188-3d368cc308da67595a1fc649431bbd92" style="stroke:#181818;stroke-width:1.0;"/></g><!--link d7d543e0f1a6c78b536b28ef7e978188 to 60d92cd168b19d335e736c5de29b9afe--><g id="link_d7d543e0f1a6c78b536b28ef7e978188_60d92cd168b19d335e736c5de29b9afe"><path codeLine="80" d="M1069.62,157.77 C1036.57,259.21 962.9,469.96 906,520.45 C844.31,575.19 757.47,603.84 681.87,618.82 " fill="none" id="d7d543e0f1a6c78b536b28ef7e978188-60d92cd168b19d335e736c5de29b9afe" style="stroke:#181818;stroke-width:1.0;"/></g><!--link d7d543e0f1a6c78b536b28ef7e978188 to 11701921a2711b2b4876772409852c31--><g id="link_d7d543e0f1a6c78b536b28ef7e978188_11701921a2711b2b4876772409852c31"><path codeLine="81" d="M1104.73,157.73 C1125.76,227.94 1158,353.53 1158,463.71 C1158,463.71 1158,463.71 1158,637.19 C1158,777.03 1015.65,869.94 897.49,922.98 " fill="none" id="d7d543e0f1a6c78b536b28ef7e978188-11701921a2711b2b4876772409852c31" style="stroke:#181818;stroke-width:1.0;"/></g><!--link d7d543e0f1a6c78b536b28ef7e978188 to 6287e46eded4a4e01b4c6f9ab2d2b654--><g id="link_d7d543e0f1a6c78b536b28ef7e978188_6287e46eded4a4e01b4c6f9ab2d2b654"><path codeLine="82" d="M1182.29,157.74 C1193.73,167.24 1204.38,177.85 1213,189.48 C1289.11,292.23 1300,335.84 1300,463.71 C1300,463.71 1300,463.71 1300,980.16 C1300,1161.18 1082.12,1249.4 920.63,1289.93 " fill="none" id="d7d543e0f1a6c78b536b28ef7e978188-6287e46eded4a4e01b4c6f9ab2d2b654" style="stroke:#181818;stroke-width:1.0;"/></g><!--link d7d543e0f1a6c78b536b28ef7e978188 to a773a0ceb9f645268075c20fc93b9d7d--><g id="link_d7d543e0f1a6c78b536b28ef7e978188_a773a0ceb9f645268075c20fc93b9d7d"><path codeLine="83" d="M972.54,157.93 C920.87,182.84 859.99,212.19 808.34,237.09 " fill="none" id="d7d543e0f1a6c78b536b28ef7e978188-a773a0ceb9f645268075c20fc93b9d7d" style="stroke:#181818;stroke-width:1.0;"/></g><!--link d7d543e0f1a6c78b536b28ef7e978188 to 9c19a6c8e12dcfc24508e5511f6dd722--><g id="link_d7d543e0f1a6c78b536b28ef7e978188_9c19a6c8e12dcfc24508e5511f6dd722"><path codeLine="84" d="M1020.42,157.79 C1009.75,167.85 999.2,178.62 990,189.48 C935.77,253.5 948.09,289.4 889,348.96 C866.86,371.28 839.66,391.49 813.24,408.51 " fill="none" id="d7d543e0f1a6c78b536b28ef7e978188-9c19a6c8e12dcfc24508e5511f6dd722" style="stroke:#181818;stroke-width:1.0;"/></g><!--link a773a0ceb9f645268075c20fc93b9d7d to 9c19a6c8e12dcfc24508e5511f6dd722--><g id="link_a773a0ceb9f645268075c20fc93b9d7d_9c19a6c8e12dcfc24508e5511f6dd722"><path codeLine="85" d="M699.52,349.25 C701.43,368.29 703.57,389.62 705.48,408.67 " fill="none" id="a773a0ceb9f645268075c20fc93b9d7d-9c19a6c8e12dcfc24508e5511f6dd722" style="stroke:#181818;stroke-width:1.0;"/></g><!--link a773a0ceb9f645268075c20fc93b9d7d to 60d92cd168b19d335e736c5de29b9afe--><g id="link_a773a0ceb9f645268075c20fc93b9d7d_60d92cd168b19d335e736c5de29b9afe"><path codeLine="86" d="M548,349.3 C524.03,364.91 502.36,384.52 488,408.96 C457.23,461.32 475.03,531.9 494.33,580.22 " fill="none" id="a773a0ceb9f645268075c20fc93b9d7d-60d92cd168b19d335e736c5de29b9afe" style="stroke:#181818;stroke-width:1.0;"/></g><!--link a773a0ceb9f645268075c20fc93b9d7d to d8765cf8d7e7b08276424eaf84aa4450--><g id="link_a773a0ceb9f645268075c20fc93b9d7d_d8765cf8d7e7b08276424eaf84aa4450"><path codeLine="87" d="M572.22,349.2 C549.67,365.14 529.11,384.91 516,408.96 C492.28,452.47 486.93,480.32 516,520.45 C566.22,589.76 648.78,511.13 699,580.45 C728.07,620.57 718.47,646.37 699,691.93 C689.37,714.46 672.91,734.68 655.21,751.64 " fill="none" id="a773a0ceb9f645268075c20fc93b9d7d-d8765cf8d7e7b08276424eaf84aa4450" style="stroke:#181818;stroke-width:1.0;"/></g><!--link a773a0ceb9f645268075c20fc93b9d7d to 3d368cc308da67595a1fc649431bbd92--><g id="link_a773a0ceb9f645268075c20fc93b9d7d_3d368cc308da67595a1fc649431bbd92"><path codeLine="88" d="M554.78,349.37 C522.69,365.75 490.07,385.67 463,408.96 C392.49,469.64 370.96,491.73 343,580.45 C282.18,773.43 275.02,856.24 370,1034.9 C382.17,1057.79 401.04,1077.85 421.02,1094.52 " fill="none" id="a773a0ceb9f645268075c20fc93b9d7d-3d368cc308da67595a1fc649431bbd92" style="stroke:#181818;stroke-width:1.0;"/></g><!--link a773a0ceb9f645268075c20fc93b9d7d to 11701921a2711b2b4876772409852c31--><g id="link_a773a0ceb9f645268075c20fc93b9d7d_11701921a2711b2b4876772409852c31"><path codeLine="89" d="M845.5,349.42 C869.65,364.96 891.43,384.52 906,408.96 C1007.73,579.69 862.41,817.01 785.07,923.1 " fill="none" id="a773a0ceb9f645268075c20fc93b9d7d-11701921a2711b2b4876772409852c31" style="stroke:#181818;stroke-width:1.0;"/></g><!--link a773a0ceb9f645268075c20fc93b9d7d to 6287e46eded4a4e01b4c6f9ab2d2b654--><g id="link_a773a0ceb9f645268075c20fc93b9d7d_6287e46eded4a4e01b4c6f9ab2d2b654"><path codeLine="90" d="M862.49,349.33 C888.95,364.8 913.34,384.36 931,408.96 C1034.87,553.7 981,628.52 981,806.67 C981,806.67 981,806.67 981,980.16 C981,1087.57 959.46,1119.73 896,1206.39 C879.62,1228.75 857.77,1249.04 835.97,1266.13 " fill="none" id="a773a0ceb9f645268075c20fc93b9d7d-6287e46eded4a4e01b4c6f9ab2d2b654" style="stroke:#181818;stroke-width:1.0;"/></g><!--link 9c19a6c8e12dcfc24508e5511f6dd722 to 60d92cd168b19d335e736c5de29b9afe--><g id="link_9c19a6c8e12dcfc24508e5511f6dd722_60d92cd168b19d335e736c5de29b9afe"><path codeLine="91" d="M649.31,520.73 C627.97,539.77 604.05,561.11 582.7,580.15 " fill="none" id="9c19a6c8e12dcfc24508e5511f6dd722-60d92cd168b19d335e736c5de29b9afe" style="stroke:#181818;stroke-width:1.0;"/></g><!--link 9c19a6c8e12dcfc24508e5511f6dd722 to d8765cf8d7e7b08276424eaf84aa4450--><g id="link_9c19a6c8e12dcfc24508e5511f6dd722_d8765cf8d7e7b08276424eaf84aa4450"><path codeLine="92" d="M729.41,520.76 C742.03,568.49 752.24,638.16 726,691.93 C714.64,715.21 696.03,735.14 675.8,751.55 " fill="none" id="9c19a6c8e12dcfc24508e5511f6dd722-d8765cf8d7e7b08276424eaf84aa4450" style="stroke:#181818;stroke-width:1.0;"/></g><!--link 9c19a6c8e12dcfc24508e5511f6dd722 to 3d368cc308da67595a1fc649431bbd92--><g id="link_9c19a6c8e12dcfc24508e5511f6dd722_3d368cc308da67595a1fc649431bbd92"><path codeLine="93" d="M729.93,520.83 C761.42,617.07 817.3,810.53 777,863.42 C716.1,943.35 628.07,850.42 559,923.42 C515.64,969.25 507.03,1043.95 506.86,1094.87 " fill="none" id="9c19a6c8e12dcfc24508e5511f6dd722-3d368cc308da67595a1fc649431bbd92" style="stroke:#181818;stroke-width:1.0;"/></g><!--link 9c19a6c8e12dcfc24508e5511f6dd722 to 11701921a2711b2b4876772409852c31--><g id="link_9c19a6c8e12dcfc24508e5511f6dd722_11701921a2711b2b4876772409852c31"><path codeLine="94" d="M768.97,520.93 C783.58,538.42 797.29,558.87 805,580.45 C818.37,617.86 796.77,852.34 794,863.42 C788.96,883.57 780.51,904.57 771.86,923.01 " fill="none" id="9c19a6c8e12dcfc24508e5511f6dd722-11701921a2711b2b4876772409852c31" style="stroke:#181818;stroke-width:1.0;"/></g><!--link 9c19a6c8e12dcfc24508e5511f6dd722 to 6287e46eded4a4e01b4c6f9ab2d2b654--><g id="link_9c19a6c8e12dcfc24508e5511f6dd722_6287e46eded4a4e01b4c6f9ab2d2b654"><path codeLine="95" d="M779.96,520.89 C848.67,582.55 944,689.27 944,806.67 C944,806.67 944,806.67 944,980.16 C944,1093.05 862.67,1202.69 805.33,1265.97 " fill="none" id="9c19a6c8e12dcfc24508e5511f6dd722-6287e46eded4a4e01b4c6f9ab2d2b654" style="stroke:#181818;stroke-width:1.0;"/></g><!--link 60d92cd168b19d335e736c5de29b9afe to d8765cf8d7e7b08276424eaf84aa4450--><g id="link_60d92cd168b19d335e736c5de29b9afe_d8765cf8d7e7b08276424eaf84aa4450"><path codeLine="96" d="M539.83,692.22 C546.35,711.26 553.65,732.59 560.16,751.63 " fill="none" id="60d92cd168b19d335e736c5de29b9afe-d8765cf8d7e7b08276424eaf84aa4450" style="stroke:#181818;stroke-width:1.0;"/></g><!--link 60d92cd168b19d335e736c5de29b9afe to 3d368cc308da67595a1fc649431bbd92--><g id="link_60d92cd168b19d335e736c5de29b9afe_3d368cc308da67595a1fc649431bbd92"><path codeLine="97" d="M429.81,692.18 C410.13,708.74 391.96,728.78 381,751.93 C325.56,869.04 410.15,1016.2 466.45,1094.56 " fill="none" id="60d92cd168b19d335e736c5de29b9afe-3d368cc308da67595a1fc649431bbd92" style="stroke:#181818;stroke-width:1.0;"/></g><!--link 60d92cd168b19d335e736c5de29b9afe to 11701921a2711b2b4876772409852c31--><g id="link_60d92cd168b19d335e736c5de29b9afe_11701921a2711b2b4876772409852c31"><path codeLine="98" d="M681.95,676.32 C719.34,693.29 754.69,717.49 777,751.93 C810.16,803.14 790.97,874.27 770.29,923.03 " fill="none" id="60d92cd168b19d335e736c5de29b9afe-11701921a2711b2b4876772409852c31" style="stroke:#181818;stroke-width:1.0;"/></g><!--link 60d92cd168b19d335e736c5de29b9afe to 6287e46eded4a4e01b4c6f9ab2d2b654--><g id="link_60d92cd168b19d335e736c5de29b9afe_6287e46eded4a4e01b4c6f9ab2d2b654"><path codeLine="99" d="M412.38,692.28 C389.8,708.55 368.49,728.43 354,751.93 C247.43,924.78 182.71,1045.81 307,1206.39 C340.89,1250.17 469.18,1280.29 579.05,1298.64 " fill="none" id="60d92cd168b19d335e736c5de29b9afe-6287e46eded4a4e01b4c6f9ab2d2b654" style="stroke:#181818;stroke-width:1.0;"/></g><!--link d8765cf8d7e7b08276424eaf84aa4450 to 3d368cc308da67595a1fc649431bbd92--><g id="link_d8765cf8d7e7b08276424eaf84aa4450_3d368cc308da67595a1fc649431bbd92"><path codeLine="100" d="M527.17,863.82 C513.71,881.53 501.03,902.11 494,923.42 C475.43,979.69 484.22,1047.98 494.63,1094.72 " fill="none" id="d8765cf8d7e7b08276424eaf84aa4450-3d368cc308da67595a1fc649431bbd92" style="stroke:#181818;stroke-width:1.0;"/></g><!--link d8765cf8d7e7b08276424eaf84aa4450 to 11701921a2711b2b4876772409852c31--><g id="link_d8765cf8d7e7b08276424eaf84aa4450_11701921a2711b2b4876772409852c31"><path codeLine="101" d="M631.92,863.7 C650.23,882.74 670.75,904.08 689.07,923.12 " fill="none" id="d8765cf8d7e7b08276424eaf84aa4450-11701921a2711b2b4876772409852c31" style="stroke:#181818;stroke-width:1.0;"/></g><!--link d8765cf8d7e7b08276424eaf84aa4450 to 6287e46eded4a4e01b4c6f9ab2d2b654--><g id="link_d8765cf8d7e7b08276424eaf84aa4450_6287e46eded4a4e01b4c6f9ab2d2b654"><path codeLine="102" d="M555.85,863.45 C539.02,912.62 524.62,984.61 559,1034.9 C600.45,1095.54 666.77,1037.82 713,1094.9 C723.64,1108.05 736.47,1203.49 743.88,1266.14 " fill="none" id="d8765cf8d7e7b08276424eaf84aa4450-6287e46eded4a4e01b4c6f9ab2d2b654" style="stroke:#181818;stroke-width:1.0;"/></g><!--link 11701921a2711b2b4876772409852c31 to 3d368cc308da67595a1fc649431bbd92--><g id="link_11701921a2711b2b4876772409852c31_3d368cc308da67595a1fc649431bbd92"><path codeLine="103" d="M666.68,1035.19 C640.61,1054.23 611.41,1075.56 585.34,1094.6 " fill="none" id="11701921a2711b2b4876772409852c31-3d368cc308da67595a1fc649431bbd92" style="stroke:#181818;stroke-width:1.0;"/></g><!--link 11701921a2711b2b4876772409852c31 to 6287e46eded4a4e01b4c6f9ab2d2b654--><g id="link_11701921a2711b2b4876772409852c31_6287e46eded4a4e01b4c6f9ab2d2b654"><path codeLine="104" d="M743.29,1035.32 C744.78,1098.84 747.22,1202.56 748.71,1266.05 " fill="none" id="11701921a2711b2b4876772409852c31-6287e46eded4a4e01b4c6f9ab2d2b654" style="stroke:#181818;stroke-width:1.0;"/></g><!--link 3d368cc308da67595a1fc649431bbd92 to 6287e46eded4a4e01b4c6f9ab2d2b654--><g id="link_3d368cc308da67595a1fc649431bbd92_6287e46eded4a4e01b4c6f9ab2d2b654"><path codeLine="105" d="M587.92,1206.67 C614.88,1225.71 645.09,1247.04 672.06,1266.09 " fill="none" id="3d368cc308da67595a1fc649431bbd92-6287e46eded4a4e01b4c6f9ab2d2b654" style="stroke:#181818;stroke-width:1.0;"/></g><!--SRC=[hPPDRoCt38RlyokCHKy14kZxOsyjUkcYfovwAWg34Yd3m7Z6jIUR1elyzohEHzqWAEd57cs9pxnyIL62SPplTjk_jzDcc6QarOUVxoVOpLW-hE2u2bHATCQgQAhFpZPlgjOckePH5rLMNuTLdNVxUQ9fMUdKg9bO41MWRSNwgaoosNZCjfIw-cEuki9d_lg7h-DSORo1_NPzN62XzG9bf8VhbuNRQVlNuyg67gwkXc6Xmm7QVDYjEe0-higykJq-HPwjBVVxlWPtn_NhXqxOOVXpU7XEySVzTjEZxk3-b6G1cy4t1U1TZDfNXorafvspsKPl_fiaHlJEaceQGesfU1kAITGYvPXqIgSauVKBwoUP_O-UrnSut3mbr7ySOC9vrnCuTFDlZaHuiyN_oRGZtitpqR-NZntek9msdcNxA-mAmYbJvI0YsEgBSXKmUGHDlSJPMErBUbDEYD62gbHo2ywRa5JqrQXMUp5pj-6KwNYYhv56MkZpOp6azJiBUJUlPtAxdUgodQV7bFxLbglEtVz4sc1jrJYl4dclTGk8qPXpRVlvkFn6RQIwIBMTXLokBIZCfg8EgUYCrdgADbIFP7B9qEXSsuQMppGsgQxdxPThmXI3horXf5XKCZ4uumXQSW2kc_T6q-z7Elnq_mjUeEibv79jMaUbiz5WejR55DUrncYSogcF6wlV-dL9axtilroLHHjIhLObX11zzg1R3QuFGLrAB_2xZdswMowshCTyGu-P5Ca5Ga87ZfGkheQMeHWq9NZtjlylCkqrGAhhOM17_pLUiuTMHk6Ebup27GWPXMiI6OKx049Vc9QGKRYXFx3tdyXT4OLrLqHX-qL4OMiaqyBLI4JvFZLYJoDx_ty_2biZ4ONjEX65xJeHXUqNcIzSlx3l896x8WhhheZ2kYkYiExAVE7SPLzo8bz45DON4ONrHKJXfnJtcfHDRmc5dxiI2dytSczGsMqleR1Qs9UdXF8F]--></g></svg>